<?xml version="1.0" standalone="no"?>
<!DOCTYPE svg PUBLIC "-//W3C//DTD SVG 20010904//EN"
 "http://www.w3.org/TR/2001/REC-SVG-20010904/DTD/svg10.dtd">
<svg version="1.0" xmlns="http://www.w3.org/2000/svg"
 width="351.000000pt" height="351.000000pt" viewBox="0 0 351.000000 351.000000"
 preserveAspectRatio="xMidYMid meet">
<metadata>
Created by potrace 1.14, written by Peter Selinger 2001-2017
</metadata>
<g transform="translate(0.000000,351.000000) scale(0.100000,-0.100000)"
fill="#000000" stroke="none">
<path d="M700 3505 c0 -2 9 -19 20 -38 16 -27 18 -40 11 -60 -5 -14 -15 -28
-20 -32 -19 -11 -46 13 -46 41 0 15 -5 29 -11 31 -7 2 -40 -19 -75 -47 -53
-42 -69 -63 -100 -129 -27 -58 -34 -83 -27 -95 5 -10 7 -28 4 -42 -5 -18 0
-30 18 -47 18 -16 25 -35 28 -72 l5 -51 -74 -32 c-87 -37 -116 -32 -111 18 6
55 -17 32 -44 -45 -29 -83 -54 -126 -118 -200 -68 -79 -74 -90 -61 -127 6 -17
8 -34 4 -37 -16 -12 -45 -120 -40 -147 6 -32 -16 -82 -44 -102 -18 -13 -19
-49 -19 -921 l0 -908 79 -47 c43 -25 83 -46 90 -46 6 0 36 16 66 36 30 20 61
34 69 31 8 -3 20 -24 27 -47 9 -28 26 -51 53 -73 23 -17 47 -38 55 -45 11 -11
38 -13 115 -9 83 4 113 10 171 35 39 16 86 37 105 45 22 10 57 43 95 92 59 75
62 78 149 110 48 18 93 38 99 44 5 5 20 42 32 80 17 53 39 91 95 161 83 105
115 171 135 278 13 69 25 103 25 73 0 -6 7 -28 15 -48 l15 -36 30 28 c38 37
46 30 94 -80 19 -44 39 -81 44 -83 6 -2 16 14 22 35 14 43 71 159 92 186 23
31 33 6 76 -190 l40 -183 -15 -77 c-15 -77 -15 -80 14 -193 34 -135 47 -146
83 -70 13 27 30 50 38 50 12 0 13 -30 11 -192 l-4 -192 57 -34 c42 -25 61 -43
70 -68 l12 -34 624 0 625 0 -7 153 c-4 84 -8 162 -9 172 -2 16 4 20 33 20 19
0 34 5 34 10 -1 6 -18 82 -37 170 -20 88 -43 210 -52 270 -9 61 -21 132 -26
158 -18 97 -8 118 37 76 27 -26 60 -19 46 8 -5 10 -17 54 -27 98 -26 124 -75
342 -95 425 -9 41 -14 79 -9 84 7 8 33 -8 152 -102 l67 -53 -1 643 0 643 -80
65 c-44 35 -85 67 -91 71 -7 5 -9 26 -4 63 l6 56 -169 85 c-93 46 -172 89
-176 95 -3 5 1 20 9 32 30 43 22 52 -107 112 -123 57 -124 58 -145 107 l-20
49 -1016 0 c-559 0 -1016 -3 -1016 -5z"/>
</g>
</svg>
